<svg width="417" height="342" viewBox="0 0 417 342" fill="none" xmlns="http://www.w3.org/2000/svg">
<path d="M172.768 282.954C171.666 280.396 171.218 277.632 172.058 274.453C172.915 271.212 174.674 269.098 176.938 267.43L184.314 269.379C185.458 271.949 185.942 274.656 185.086 277.897C184.245 281.076 182.49 283.257 180.268 284.937L172.768 282.954ZM177.828 270.621C176.656 271.778 175.647 273.157 175.092 275.255C174.554 277.291 174.712 279.045 175.139 280.625L179.357 281.74C180.53 280.583 181.514 279.131 182.052 277.095C182.607 274.997 182.411 273.3 181.963 271.714L177.828 270.621Z" fill="#105B60"/>
<path d="M163.053 265.274L160.055 263.872C158.814 264.597 157.507 266.074 156.615 267.981L153.212 275.263L150.389 273.943L153.792 266.662C155.185 263.683 157.482 261.459 159.786 260.591L165.723 263.367C166.554 265.701 166.301 268.88 164.909 271.859L161.505 279.14L158.702 277.829L162.105 270.548C162.997 268.64 163.292 266.69 163.053 265.274Z" fill="#105B60"/>
<path d="M136.825 255.635C137.011 255.371 137.184 255.125 137.386 254.873L140.743 255.63L141.359 248.997L144.137 250.949L143.648 256.279L146.619 256.949L148.62 254.1L151.152 255.88L141.91 269.032L134.542 263.854C134.396 261.072 134.935 258.325 136.825 255.635ZM141.021 264.914L144.839 259.481L138.958 258.132C138.075 259.612 137.699 261.082 137.575 262.492L141.021 264.914Z" fill="#105B60"/>
<path d="M116.207 234.656C116.453 234.448 116.683 234.254 116.944 234.063L125.343 238.421L128.004 236.176L129.999 238.542L117.711 248.906L111.906 242.023C112.473 239.295 113.694 236.776 116.207 234.656ZM117.901 244.698L122.977 240.416L117.633 237.614C116.402 238.821 115.665 240.146 115.185 241.478L117.901 244.698Z" fill="#105B60"/>
<path d="M105.738 218.039C106.016 217.876 106.276 217.725 106.565 217.581L109.302 219.665L112.623 213.89L114.337 216.822L111.674 221.465L114.096 223.31L117.102 221.553L118.664 224.225L104.786 232.337L100.242 224.563C101.266 221.972 102.899 219.698 105.738 218.039ZM105.692 228.223L111.425 224.872L106.638 221.197C105.219 222.176 104.266 223.356 103.566 224.586L105.692 228.223Z" fill="#105B60"/>
<path d="M91.4511 204.565C92.912 202.193 94.9166 200.239 98.0011 199.1C101.146 197.939 103.887 198.164 106.553 199.058L109.196 206.215C107.75 208.628 105.813 210.58 102.668 211.741C99.5836 212.88 96.79 212.697 94.1382 211.843L91.4511 204.565ZM104.453 201.621C102.832 201.326 101.124 201.292 99.0879 202.044C97.1121 202.773 95.7682 203.911 94.7205 205.168L96.2315 209.261C97.8524 209.556 99.6057 209.527 101.581 208.797C103.618 208.046 104.894 206.91 105.934 205.633L104.453 201.621Z" fill="#105B60"/>
<path d="M91.1165 193.108L88.3131 193.665L86.6407 185.255L94.5239 183.687C97.812 183.033 100.483 183.685 102.977 184.986L104.197 191.12L101.393 191.677L100.501 187.188C98.946 186.642 97.2563 186.299 95.1274 186.723L90.0476 187.733L91.1165 193.108Z" fill="#105B60"/>
<path d="M101.591 175.862L85.5387 176.717L85.0095 166.78L87.8638 166.628L88.2284 173.474L93.4003 173.199L93.1088 167.726L95.9631 167.574L96.2545 173.047L98.5722 172.923L98.2076 166.078L101.062 165.925L101.591 175.862Z" fill="#105B60"/>
<path d="M91.7013 146.426L91.3431 149.629C90.4839 149.771 89.6744 150.048 88.9242 150.375L88.4395 154.711C89.756 155.702 91.3361 156.462 93.4291 156.696C95.5862 156.937 97.236 156.495 98.7387 155.819L99.2139 151.569C98.5544 151.084 97.8499 150.616 97.0242 150.265L97.3824 147.061C99.3185 147.732 100.882 148.836 102.241 150.221L101.393 157.803C99.0187 159.31 96.4123 160.187 93.0805 159.814C89.8128 159.449 87.3978 158.033 85.4103 156.081L86.2723 148.371C87.92 147.365 89.6862 146.655 91.7013 146.426Z" fill="#105B60"/>
<path d="M90.9045 138.59L88.1543 137.811L91.2159 126.997L93.9661 127.775L92.8538 131.704L105.571 135.304L104.728 138.282L92.0109 134.682L90.9045 138.59Z" fill="#105B60"/>
<path d="M99.9981 113.25L98.3705 116.735C98.8806 117.471 99.4478 118.187 100.195 118.821L107.677 111.688C110.108 113.084 111.64 114.985 112.728 117.225L109.5 124.138C107.619 124.611 105.709 124.739 103.707 124.303L105.071 121.382C105.959 121.512 106.805 121.48 107.62 121.41L109.429 117.535C108.919 116.799 108.352 116.083 107.604 115.449L100.123 122.582C97.6918 121.186 96.1602 119.284 95.0715 117.045L98.1175 110.521C99.9988 110.048 101.909 109.92 103.911 110.356L102.547 113.277C101.659 113.147 100.813 113.18 99.9981 113.25Z" fill="#105B60"/>
<path d="M116.045 84.123C118.829 84.2146 121.521 84.9855 124.04 87.0987C126.608 89.2532 127.772 91.7445 128.319 94.5034L123.416 100.348C120.604 100.29 117.948 99.5767 115.38 97.4221C112.861 95.309 111.634 92.7928 111.059 90.0668L116.045 84.123ZM125.052 93.9507C124.504 92.397 123.686 90.8975 122.023 89.5025C120.41 88.149 118.755 87.5465 117.144 87.2606L114.34 90.603C114.888 92.1567 115.783 93.6647 117.396 95.0183C119.059 96.4132 120.678 96.9578 122.304 97.2272L125.052 93.9507Z" fill="#105B60"/>
<path d="M136.179 82.8543L138.723 80.7376C138.595 79.3066 137.814 77.4955 136.467 75.8765L131.327 69.6979L133.722 67.7048L138.863 73.8834C140.966 76.411 142.001 79.4359 141.806 81.8901L136.768 86.0824C134.302 85.8411 131.533 84.2595 129.43 81.7319L124.289 75.5533L126.668 73.574L131.809 79.7526C133.156 81.3716 134.795 82.468 136.179 82.8543Z" fill="#105B60"/>
<path d="M156.064 63.222C156.224 63.502 156.373 63.7633 156.514 64.0539L154.402 66.7692L160.142 70.1491L157.193 71.8324L152.577 69.122L150.708 71.5255L152.433 74.5491L149.746 76.0832L141.777 62.1225L149.597 57.6586C152.177 58.71 154.434 60.3664 156.064 63.222ZM145.881 63.0707L149.173 68.8379L152.897 64.0895C151.933 62.6603 150.763 61.6948 149.54 60.9826L145.881 63.0707Z" fill="#105B60"/>
<path d="M183.821 53.4889C183.904 53.8004 183.982 54.091 184.044 54.408L176.526 60.1542L177.425 63.5177L174.435 64.3166L170.285 48.7865L178.984 46.4618C181.211 48.1357 182.972 50.3123 183.821 53.4889ZM174.013 50.749L175.727 57.1645L180.537 53.5211C179.969 51.8934 179.083 50.6618 178.082 49.6615L174.013 50.749Z" fill="#105B60"/>
<path d="M203.314 51.0883C203.343 51.4094 203.37 51.7091 203.377 52.0321L200.326 53.6218L204.139 59.0842L200.757 59.3874L197.688 55.002L194.988 56.4092L195.299 59.8768L192.216 60.1532L190.781 44.1424L199.749 43.3382C201.658 45.368 203.02 47.8134 203.314 51.0883ZM194.118 46.7129L194.711 53.3269L200.073 50.559C199.791 48.8581 199.13 47.4934 198.314 46.3367L194.118 46.7129Z" fill="#105B60"/>
<path d="M221.585 43.8908C223.11 46.2222 224.026 48.8678 223.744 52.1438C223.457 55.484 222.087 57.8683 220.143 59.9011L212.542 59.247C210.974 56.9119 210.032 54.3286 210.319 50.9884C210.601 47.7125 211.955 45.2621 213.856 43.2256L221.585 43.8908ZM218.718 56.9097C219.675 55.5684 220.432 54.0373 220.618 51.8748C220.799 49.7764 220.341 48.0762 219.649 46.593L215.302 46.2189C214.346 47.5602 213.626 49.1591 213.445 51.2575C213.259 53.42 213.744 55.0579 214.457 56.543L218.718 56.9097Z" fill="#105B60"/>
<path d="M232.096 48.4654L232.785 45.6912L241.107 47.7565L239.171 55.5574C238.364 58.8113 236.637 60.9513 234.399 62.6544L228.329 61.1481L229.018 58.374L233.46 59.4765C234.615 58.3018 235.645 56.9187 236.168 54.812L237.415 49.7853L232.096 48.4654Z" fill="#105B60"/>
<path d="M243.247 65.2816L249.304 50.3913L258.521 54.1404L257.444 56.788L251.093 54.2049L249.142 59.0025L254.218 61.0673L253.141 63.7149L248.065 61.6501L247.19 63.8L253.541 66.3831L252.464 69.0307L243.247 65.2816Z" fill="#105B60"/>
<path d="M274.092 68.8581L271.345 67.1707C271.583 66.3328 271.676 65.4824 271.7 64.6644L267.982 62.3808C266.526 63.1507 265.165 64.257 264.063 66.0515C262.927 67.9009 262.625 69.5822 262.597 71.2295L266.241 73.468C266.96 73.0775 267.683 72.6391 268.353 72.0416L271.1 73.7289C269.669 75.1957 268.004 76.1403 266.173 76.7809L259.673 72.7875C259.318 69.9973 259.635 67.2657 261.389 64.4091C263.11 61.6075 265.42 60.0246 268.032 59.0567L274.642 63.1176C274.851 65.0364 274.742 66.9372 274.092 68.8581Z" fill="#105B60"/>
<path d="M281.523 71.47L283.397 69.3126L291.881 76.6851L290.006 78.8425L286.924 76.1642L278.255 86.1404L275.919 84.1105L284.588 74.1343L281.523 71.47Z" fill="#105B60"/>
<path d="M300.585 90.483L298.123 87.527C297.24 87.6753 296.351 87.8841 295.46 88.291L298.731 98.0961C296.433 99.7023 294.061 100.279 291.57 100.311L286.688 94.4489C287.06 92.545 287.757 90.7622 289.004 89.1364L291.067 91.6135C290.571 92.3618 290.241 93.1404 289.957 93.908L292.694 97.1943C293.577 97.046 294.466 96.8372 295.358 96.4302L292.087 86.6252C294.385 85.019 296.757 84.442 299.247 84.4098L303.854 89.942C303.482 91.846 302.785 93.6288 301.538 95.2546L299.476 92.7775C299.971 92.0292 300.302 91.2506 300.585 90.483Z" fill="#105B60"/>
<path d="M320.114 117.398C318.847 119.879 317.004 121.986 314.02 123.367C310.977 124.774 308.227 124.768 305.498 124.089L302.295 117.164C303.544 114.645 305.32 112.545 308.362 111.137C311.347 109.757 314.146 109.717 316.857 110.357L320.114 117.398ZM307.388 121.367C309.027 121.532 310.732 121.43 312.702 120.519C314.614 119.635 315.863 118.394 316.807 117.057L314.976 113.098C313.337 112.932 311.591 113.101 309.68 113.985C307.71 114.896 306.528 116.129 305.593 117.486L307.388 121.367Z" fill="#105B60"/>
<path d="M312.695 136.158L313.528 139.361C314.877 139.854 316.848 139.919 318.886 139.389L326.665 137.366L327.449 140.382L319.671 142.405C316.488 143.232 313.311 142.882 311.172 141.662L309.523 135.318C310.79 133.19 313.4 131.356 316.582 130.529L324.361 128.506L325.14 131.501L317.361 133.524C315.323 134.054 313.633 135.071 312.695 136.158Z" fill="#105B60"/>
<path d="M322.001 162.506C321.679 162.531 321.379 162.555 321.056 162.559L319.498 159.492L313.997 163.248L313.728 159.863L318.145 156.84L316.766 154.125L313.295 154.4L313.05 151.316L329.075 150.045L329.787 159.021C327.738 160.908 325.278 162.246 322.001 162.506ZM326.47 153.356L319.851 153.881L322.563 159.271C324.267 159.006 325.638 158.358 326.803 157.555L326.47 153.356Z" fill="#105B60"/>
<path d="M318.997 191.766C318.679 191.709 318.383 191.656 318.07 191.577L316.069 182.329L312.643 181.711L313.192 178.665L329.012 181.518L327.414 190.38C324.951 191.683 322.232 192.35 318.997 191.766ZM325.65 184.056L319.114 182.878L320.365 188.781C322.08 188.959 323.571 188.682 324.902 188.202L325.65 184.056Z" fill="#105B60"/>
<path d="M312.874 210.427C312.571 210.317 312.289 210.214 311.993 210.083L311.853 206.646L305.287 207.771L306.452 204.582L311.726 203.671L311.602 200.628L308.332 199.434L309.393 196.527L324.493 202.041L321.404 210.499C318.756 211.362 315.963 211.555 312.874 210.427ZM320.747 203.968L314.509 201.69L314.732 207.72C316.391 208.188 317.908 208.17 319.302 207.924L320.747 203.968Z" fill="#105B60"/>
<path d="M311.612 230.026C308.854 230.414 306.07 230.117 303.225 228.468C300.325 226.786 298.75 224.532 297.738 221.908L301.564 215.308C304.344 214.882 307.083 215.129 309.983 216.81C312.828 218.459 314.469 220.727 315.503 223.314L311.612 230.026ZM301.051 221.891C301.858 223.328 302.921 224.665 304.799 225.753C306.621 226.809 308.354 227.119 309.991 227.124L312.179 223.35C311.372 221.913 310.232 220.581 308.41 219.525C306.532 218.436 304.843 218.178 303.196 218.191L301.051 221.891Z" fill="#105B60"/>
<path d="M303 237.593L305.218 239.396L299.808 246.049L293.572 240.978C290.971 238.862 289.769 236.389 289.18 233.639L293.126 228.787L295.344 230.59L292.456 234.142C293.027 235.687 293.841 237.207 295.525 238.577L299.543 241.845L303 237.593Z" fill="#105B60"/>
<path d="M283.038 240.525L293.936 252.343L286.621 259.088L284.683 256.987L289.723 252.339L286.212 248.532L282.183 252.247L280.245 250.146L284.274 246.431L282.701 244.725L277.661 249.372L275.723 247.271L283.038 240.525Z" fill="#105B60"/>
<path d="M266.677 266.918L269.373 265.151C270.03 265.722 270.76 266.168 271.49 266.538L275.138 264.145C275.061 262.5 274.639 260.798 273.484 259.037C272.294 257.221 270.901 256.233 269.422 255.507L265.846 257.852C265.893 258.669 265.982 259.51 266.238 260.37L263.542 262.138C262.824 260.219 262.677 258.31 262.877 256.381L269.257 252.197C271.933 253.064 274.27 254.512 276.108 257.316C277.911 260.066 278.361 262.829 278.125 265.605L271.638 269.859C269.813 269.231 268.139 268.324 266.677 266.918Z" fill="#105B60"/>
<path d="M261.149 272.531L262.304 275.145L252.022 279.686L250.868 277.071L254.603 275.421L249.264 263.331L252.095 262.081L257.434 274.171L261.149 272.531Z" fill="#105B60"/>
<path d="M235.832 281.691L239.555 280.721C239.797 279.858 239.986 278.965 239.997 277.985L229.732 276.773C229.256 274.01 229.743 271.618 230.774 269.35L238.157 267.427C239.721 268.574 241.038 269.963 241.979 271.783L238.859 272.596C238.393 271.829 237.829 271.199 237.255 270.616L233.117 271.694C232.875 272.556 232.686 273.449 232.675 274.429L242.94 275.642C243.415 278.405 242.928 280.797 241.898 283.064L234.931 284.879C233.366 283.732 232.049 282.343 231.109 280.523L234.228 279.71C234.694 280.477 235.258 281.107 235.832 281.691Z" fill="#105B60"/>
</svg>
